<svg width="30" height="30" viewBox="0 0 30 30" fill="none" xmlns="http://www.w3.org/2000/svg">
<path d="M19.6318 8.15625C19.6318 8.41406 19.6143 8.67187 19.582 8.92676C19.5967 8.82422 19.6113 8.71875 19.623 8.61621C19.5527 9.12598 19.418 9.62109 19.2217 10.0957C19.2598 10.002 19.3008 9.9082 19.3389 9.81445C19.1426 10.2773 18.8906 10.7109 18.583 11.1094L18.7676 10.8721C18.4629 11.2646 18.1084 11.6191 17.7158 11.9238L17.9531 11.7393C17.5547 12.0439 17.1211 12.2988 16.6582 12.4951C16.752 12.457 16.8457 12.416 16.9395 12.3779C16.4648 12.5742 15.9697 12.709 15.46 12.7793C15.5625 12.7646 15.668 12.75 15.7705 12.7383C15.2578 12.8057 14.7422 12.8057 14.2295 12.7383C14.332 12.7529 14.4375 12.7676 14.54 12.7793C14.0303 12.709 13.5352 12.5742 13.0605 12.3779C13.1543 12.416 13.248 12.457 13.3418 12.4951C12.8789 12.2988 12.4453 12.0469 12.0469 11.7393L12.2842 11.9238C11.8916 11.6191 11.5371 11.2646 11.2324 10.8721L11.417 11.1094C11.1123 10.7109 10.8574 10.2773 10.6611 9.81445C10.6992 9.9082 10.7402 10.002 10.7783 10.0957C10.582 9.62109 10.4473 9.12598 10.377 8.61621C10.3916 8.71875 10.4062 8.82422 10.418 8.92676C10.3506 8.41406 10.3506 7.89844 10.418 7.38574C10.4033 7.48828 10.3887 7.59375 10.377 7.69629C10.4473 7.18652 10.582 6.69141 10.7783 6.2168C10.7402 6.31055 10.6992 6.4043 10.6611 6.49805C10.8574 6.03516 11.1094 5.60156 11.417 5.20313L11.2324 5.44043C11.5371 5.04785 11.8916 4.69336 12.2842 4.38867L12.0469 4.57324C12.4453 4.26855 12.8789 4.01367 13.3418 3.81738C13.248 3.85547 13.1543 3.89648 13.0605 3.93457C13.5352 3.73828 14.0303 3.60352 14.54 3.5332C14.4375 3.54785 14.332 3.5625 14.2295 3.57422C14.7422 3.50684 15.2578 3.50684 15.7705 3.57422C15.668 3.55957 15.5625 3.54492 15.46 3.5332C15.9697 3.60352 16.4648 3.73828 16.9395 3.93457C16.8457 3.89648 16.752 3.85547 16.6582 3.81738C17.1211 4.01367 17.5547 4.26563 17.9531 4.57324L17.7158 4.38867C18.1084 4.69336 18.4629 5.04785 18.7676 5.44043L18.583 5.20313C18.8877 5.60156 19.1426 6.03516 19.3389 6.49805C19.3008 6.4043 19.2598 6.31055 19.2217 6.2168C19.418 6.69141 19.5527 7.18652 19.623 7.69629C19.6084 7.59375 19.5938 7.48828 19.582 7.38574C19.6143 7.64063 19.6289 7.89844 19.6318 8.15625C19.6348 8.76855 20.168 9.35742 20.8037 9.32812C21.4365 9.29883 21.9785 8.8125 21.9756 8.15625C21.9697 6.75293 21.5478 5.31738 20.7217 4.1748C20.499 3.86719 20.2617 3.56543 19.998 3.29297C19.7314 3.01758 19.4385 2.78027 19.1338 2.54883C18.5801 2.12695 17.9619 1.81641 17.3057 1.57617C14.6602 0.606445 11.4697 1.4707 9.67969 3.65039C9.43359 3.94922 9.19922 4.25977 9 4.59375C8.80078 4.9248 8.64551 5.27637 8.50195 5.63379C8.23242 6.2959 8.09473 6.99902 8.03906 7.71094C7.93066 9.10547 8.29394 10.5615 9.02051 11.7568C9.7207 12.9111 10.7783 13.9014 12.0146 14.4609C12.3779 14.625 12.75 14.7773 13.1367 14.8857C13.5205 14.9912 13.9102 15.0498 14.3057 15.0967C15.0264 15.1816 15.7617 15.123 16.4736 14.9795C19.1777 14.4287 21.4424 12.0996 21.8613 9.36621C21.9229 8.96777 21.9697 8.56934 21.9697 8.16504C21.9727 7.55273 21.4277 6.96387 20.7979 6.99316C20.165 7.01367 19.6318 7.5 19.6318 8.15625ZM23.5195 26.4756H8.4873C7.82227 26.4756 7.15723 26.4814 6.49219 26.4756C6.41895 26.4756 6.3457 26.4697 6.27539 26.4609C6.37793 26.4756 6.4834 26.4902 6.58594 26.502C6.46875 26.4844 6.35742 26.4521 6.24902 26.4082C6.34277 26.4463 6.43652 26.4873 6.53027 26.5254C6.41309 26.4756 6.30469 26.4111 6.20215 26.332L6.43945 26.5166C6.35156 26.4434 6.26953 26.3643 6.19922 26.2764L6.38379 26.5137C6.30469 26.4111 6.24316 26.3027 6.19043 26.1855C6.22852 26.2793 6.26953 26.373 6.30762 26.4668C6.26367 26.3584 6.23437 26.2441 6.21387 26.1299C6.22852 26.2324 6.24316 26.3379 6.25488 26.4404C6.20801 26.0859 6.24023 25.7109 6.24023 25.3535V24.0996C6.24023 23.7861 6.25781 23.4756 6.29883 23.165C6.28418 23.2676 6.26953 23.373 6.25781 23.4756C6.33984 22.875 6.49805 22.2861 6.73535 21.7266C6.69727 21.8203 6.65625 21.9141 6.61816 22.0078C6.84668 21.4746 7.13965 20.9736 7.49414 20.5137L7.30957 20.751C7.66406 20.2969 8.07129 19.8867 8.52832 19.5322L8.29102 19.7168C8.75098 19.3623 9.25195 19.0693 9.78516 18.8408C9.69141 18.8789 9.59766 18.9199 9.50391 18.958C10.0635 18.7236 10.6494 18.5625 11.2529 18.4805C11.1504 18.4951 11.0449 18.5098 10.9424 18.5215C11.376 18.4658 11.8066 18.4629 12.2432 18.4629H17.6045C18.0879 18.4629 18.5684 18.46 19.0518 18.5215C18.9492 18.5068 18.8438 18.4922 18.7412 18.4805C19.3418 18.5625 19.9307 18.7207 20.4902 18.958C20.3965 18.9199 20.3027 18.8789 20.209 18.8408C20.7422 19.0693 21.2432 19.3623 21.7031 19.7168L21.4658 19.5322C21.9199 19.8867 22.3301 20.2939 22.6846 20.751L22.5 20.5137C22.8545 20.9736 23.1475 21.4746 23.376 22.0078C23.3379 21.9141 23.2969 21.8203 23.2588 21.7266C23.4932 22.2861 23.6543 22.8721 23.7363 23.4756C23.7217 23.373 23.707 23.2676 23.6953 23.165C23.751 23.6074 23.7539 24.0469 23.7539 24.4922V25.9424C23.7539 26.1094 23.7598 26.2764 23.7393 26.4404C23.7539 26.3379 23.7686 26.2324 23.7803 26.1299C23.7627 26.2471 23.7305 26.3584 23.6865 26.4668C23.7246 26.373 23.7656 26.2793 23.8037 26.1855C23.7539 26.3027 23.6895 26.4111 23.6104 26.5137L23.7949 26.2764C23.7217 26.3643 23.6426 26.4463 23.5547 26.5166L23.792 26.332C23.6895 26.4111 23.5811 26.4727 23.4639 26.5254C23.5576 26.4873 23.6514 26.4463 23.7451 26.4082C23.6367 26.4521 23.5225 26.4814 23.4082 26.502C23.5107 26.4873 23.6162 26.4727 23.7187 26.4609C23.6543 26.4697 23.5869 26.4727 23.5195 26.4756C23.2178 26.4785 22.9072 26.6045 22.6904 26.8184C22.4883 27.0205 22.333 27.3545 22.3477 27.6475C22.377 28.2744 22.8633 28.8281 23.5195 28.8193C24.6592 28.8018 25.6611 28.0576 25.9951 26.9648C26.127 26.5313 26.0977 26.0654 26.0977 25.6201C26.0977 24.6006 26.1299 23.5898 25.9541 22.5791C25.6963 21.0996 24.9521 19.708 23.9326 18.6152C22.9131 17.5225 21.542 16.7197 20.0918 16.3623C19.2598 16.1572 18.4219 16.125 17.5723 16.125H12.375C11.5049 16.125 10.6406 16.166 9.79394 16.3916C8.35547 16.7725 7.00195 17.584 6.00293 18.6855C4.99512 19.7959 4.26562 21.1904 4.02832 22.6787C3.87012 23.6777 3.90234 24.6797 3.90234 25.6875C3.90234 26.1504 3.87598 26.6338 4.04297 27.0762C4.25977 27.6445 4.60547 28.0928 5.1123 28.4297C5.50781 28.6904 6.00879 28.8164 6.47754 28.8223C6.70605 28.8252 6.93457 28.8223 7.16309 28.8223H23.5225C24.1348 28.8223 24.7236 28.2832 24.6943 27.6504C24.665 27.0117 24.1787 26.4756 23.5195 26.4756Z" fill="white"/>
</svg>
